<svg id="visual" viewBox="0 0 900 600" width="900" height="600" xmlns="http://www.w3.org/2000/svg" xmlns:xlink="http://www.w3.org/1999/xlink" version="1.1"><g stroke-width="1" stroke-linejoin="bevel"><path d="M466 265L424 203L409 275Z" fill="#112e42" stroke="#112e42"></path><path d="M466 265L524 164L424 203Z" fill="#15384f" stroke="#15384f"></path><path d="M524 164L428 117L424 203Z" fill="#297ea6" stroke="#297ea6"></path><path d="M264 263L363 364L409 275Z" fill="#00101c" stroke="#00101c"></path><path d="M264 263L409 275L424 203Z" fill="#297ea6" stroke="#297ea6"></path><path d="M409 275L515 362L466 265Z" fill="#19435d" stroke="#19435d"></path><path d="M363 364L515 362L409 275Z" fill="#112e42" stroke="#112e42"></path><path d="M466 265L598 226L524 164Z" fill="#297ea6" stroke="#297ea6"></path><path d="M524 164L474 83L428 117Z" fill="#297ea6" stroke="#297ea6"></path><path d="M515 362L598 226L466 265Z" fill="#277297" stroke="#277297"></path><path d="M561 0L524 0L474 83Z" fill="#081a28" stroke="#081a28"></path><path d="M272 164L264 263L424 203Z" fill="#1d4e6b" stroke="#1d4e6b"></path><path d="M295 69L272 164L428 117Z" fill="#112e42" stroke="#112e42"></path><path d="M428 117L272 164L424 203Z" fill="#15384f" stroke="#15384f"></path><path d="M385 0L295 69L428 117Z" fill="#297ea6" stroke="#297ea6"></path><path d="M515 362L637 337L598 226Z" fill="#205a7a" stroke="#205a7a"></path><path d="M363 364L488 463L515 362Z" fill="#277297" stroke="#277297"></path><path d="M515 362L593 410L637 337Z" fill="#15384f" stroke="#15384f"></path><path d="M488 463L593 410L515 362Z" fill="#1d4e6b" stroke="#1d4e6b"></path><path d="M216 363L277 418L363 364Z" fill="#19435d" stroke="#19435d"></path><path d="M363 364L378 490L488 463Z" fill="#081a28" stroke="#081a28"></path><path d="M669 308L670 239L598 226Z" fill="#0c2435" stroke="#0c2435"></path><path d="M634 63L474 83L524 164Z" fill="#277297" stroke="#277297"></path><path d="M637 337L669 308L598 226Z" fill="#00101c" stroke="#00101c"></path><path d="M700 396L669 308L637 337Z" fill="#246688" stroke="#246688"></path><path d="M177 192L195 304L264 263Z" fill="#246688" stroke="#246688"></path><path d="M264 263L216 363L363 364Z" fill="#112e42" stroke="#112e42"></path><path d="M177 192L264 263L272 164Z" fill="#246688" stroke="#246688"></path><path d="M474 83L385 0L428 117Z" fill="#297ea6" stroke="#297ea6"></path><path d="M524 0L385 0L474 83Z" fill="#297ea6" stroke="#297ea6"></path><path d="M195 304L216 363L264 263Z" fill="#246688" stroke="#246688"></path><path d="M277 418L378 490L363 364Z" fill="#0c2435" stroke="#0c2435"></path><path d="M634 63L524 164L598 226Z" fill="#205a7a" stroke="#205a7a"></path><path d="M218 82L177 192L272 164Z" fill="#1d4e6b" stroke="#1d4e6b"></path><path d="M295 69L218 82L272 164Z" fill="#19435d" stroke="#19435d"></path><path d="M239 0L218 82L295 69Z" fill="#19435d" stroke="#19435d"></path><path d="M670 239L634 63L598 226Z" fill="#1d4e6b" stroke="#1d4e6b"></path><path d="M634 63L561 0L474 83Z" fill="#1d4e6b" stroke="#1d4e6b"></path><path d="M488 463L579 475L593 410Z" fill="#246688" stroke="#246688"></path><path d="M593 410L700 396L637 337Z" fill="#081a28" stroke="#081a28"></path><path d="M474 600L579 475L488 463Z" fill="#246688" stroke="#246688"></path><path d="M385 0L289 0L295 69Z" fill="#1d4e6b" stroke="#1d4e6b"></path><path d="M579 475L700 396L593 410Z" fill="#246688" stroke="#246688"></path><path d="M669 308L798 234L670 239Z" fill="#15384f" stroke="#15384f"></path><path d="M277 418L317 529L378 490Z" fill="#205a7a" stroke="#205a7a"></path><path d="M378 490L474 600L488 463Z" fill="#15384f" stroke="#15384f"></path><path d="M209 469L317 529L277 418Z" fill="#1d4e6b" stroke="#1d4e6b"></path><path d="M289 0L239 0L295 69Z" fill="#205a7a" stroke="#205a7a"></path><path d="M218 82L117 131L177 192Z" fill="#0c2435" stroke="#0c2435"></path><path d="M670 239L705 80L634 63Z" fill="#19435d" stroke="#19435d"></path><path d="M634 63L673 0L561 0Z" fill="#00101c" stroke="#00101c"></path><path d="M798 234L705 80L670 239Z" fill="#15384f" stroke="#15384f"></path><path d="M216 363L209 469L277 418Z" fill="#112e42" stroke="#112e42"></path><path d="M135 503L209 469L63 430Z" fill="#0c2435" stroke="#0c2435"></path><path d="M75 293L216 363L195 304Z" fill="#00101c" stroke="#00101c"></path><path d="M77 0L117 131L218 82Z" fill="#15384f" stroke="#15384f"></path><path d="M177 192L94 221L195 304Z" fill="#081a28" stroke="#081a28"></path><path d="M117 131L94 221L177 192Z" fill="#081a28" stroke="#081a28"></path><path d="M705 80L673 0L634 63Z" fill="#15384f" stroke="#15384f"></path><path d="M324 600L400 600L317 529Z" fill="#112e42" stroke="#112e42"></path><path d="M317 529L400 600L378 490Z" fill="#246688" stroke="#246688"></path><path d="M579 475L736 532L700 396Z" fill="#277297" stroke="#277297"></path><path d="M400 600L474 600L378 490Z" fill="#277297" stroke="#277297"></path><path d="M0 293L75 293L94 221Z" fill="#277297" stroke="#277297"></path><path d="M94 221L75 293L195 304Z" fill="#277297" stroke="#277297"></path><path d="M809 292L798 234L669 308Z" fill="#277297" stroke="#277297"></path><path d="M705 80L769 0L673 0Z" fill="#246688" stroke="#246688"></path><path d="M163 600L324 600L317 529Z" fill="#081a28" stroke="#081a28"></path><path d="M700 396L809 292L669 308Z" fill="#205a7a" stroke="#205a7a"></path><path d="M900 169L799 99L798 234Z" fill="#246688" stroke="#246688"></path><path d="M798 234L799 99L705 80Z" fill="#205a7a" stroke="#205a7a"></path><path d="M63 430L209 469L216 363Z" fill="#00101c" stroke="#00101c"></path><path d="M209 469L163 600L317 529Z" fill="#081a28" stroke="#081a28"></path><path d="M474 600L605 600L579 475Z" fill="#246688" stroke="#246688"></path><path d="M700 396L828 395L809 292Z" fill="#00101c" stroke="#00101c"></path><path d="M75 293L63 430L216 363Z" fill="#15384f" stroke="#15384f"></path><path d="M799 99L769 0L705 80Z" fill="#15384f" stroke="#15384f"></path><path d="M677 600L736 532L579 475Z" fill="#00101c" stroke="#00101c"></path><path d="M777 529L828 395L700 396Z" fill="#15384f" stroke="#15384f"></path><path d="M809 292L900 298L798 234Z" fill="#205a7a" stroke="#205a7a"></path><path d="M239 0L77 0L218 82Z" fill="#297ea6" stroke="#297ea6"></path><path d="M0 172L0 293L94 221Z" fill="#205a7a" stroke="#205a7a"></path><path d="M75 293L0 407L63 430Z" fill="#15384f" stroke="#15384f"></path><path d="M605 600L677 600L579 475Z" fill="#297ea6" stroke="#297ea6"></path><path d="M0 172L94 221L117 131Z" fill="#0c2435" stroke="#0c2435"></path><path d="M0 112L0 172L117 131Z" fill="#19435d" stroke="#19435d"></path><path d="M127 600L163 600L135 503Z" fill="#00101c" stroke="#00101c"></path><path d="M135 503L163 600L209 469Z" fill="#277297" stroke="#277297"></path><path d="M786 600L777 529L736 532Z" fill="#00101c" stroke="#00101c"></path><path d="M736 532L777 529L700 396Z" fill="#00101c" stroke="#00101c"></path><path d="M77 0L0 112L117 131Z" fill="#246688" stroke="#246688"></path><path d="M0 293L0 407L75 293Z" fill="#0c2435" stroke="#0c2435"></path><path d="M0 525L127 600L135 503Z" fill="#205a7a" stroke="#205a7a"></path><path d="M0 525L135 503L63 430Z" fill="#112e42" stroke="#112e42"></path><path d="M900 418L900 298L828 395Z" fill="#0c2435" stroke="#0c2435"></path><path d="M828 395L900 298L809 292Z" fill="#081a28" stroke="#081a28"></path><path d="M799 99L900 0L769 0Z" fill="#246688" stroke="#246688"></path><path d="M900 298L900 169L798 234Z" fill="#277297" stroke="#277297"></path><path d="M77 0L0 0L0 112Z" fill="#297ea6" stroke="#297ea6"></path><path d="M900 169L900 74L799 99Z" fill="#00101c" stroke="#00101c"></path><path d="M900 508L900 418L828 395Z" fill="#19435d" stroke="#19435d"></path><path d="M677 600L786 600L736 532Z" fill="#081a28" stroke="#081a28"></path><path d="M777 529L900 508L828 395Z" fill="#15384f" stroke="#15384f"></path><path d="M0 407L0 525L63 430Z" fill="#246688" stroke="#246688"></path><path d="M900 74L900 0L799 99Z" fill="#081a28" stroke="#081a28"></path><path d="M900 600L900 508L777 529Z" fill="#1d4e6b" stroke="#1d4e6b"></path><path d="M0 525L0 600L127 600Z" fill="#19435d" stroke="#19435d"></path><path d="M786 600L900 600L777 529Z" fill="#297ea6" stroke="#297ea6"></path></g></svg>